<?xml version="1.0" standalone="no"?>
<!DOCTYPE svg PUBLIC "-//W3C//DTD SVG 20010904//EN"
 "http://www.w3.org/TR/2001/REC-SVG-20010904/DTD/svg10.dtd">
<svg version="1.0" xmlns="http://www.w3.org/2000/svg"
 width="256.000000pt" height="256.000000pt" viewBox="0 0 256.000000 256.000000"
 preserveAspectRatio="xMidYMid meet">
<metadata>
Created by potrace 1.14, written by Peter Selinger 2001-2017
</metadata>
<g transform="translate(0.000000,256.000000) scale(0.100000,-0.100000)"
fill="#000000" stroke="none">
<path d="M1253 2449 c-76 -4 -149 -10 -163 -13 -14 -4 -54 -8 -90 -10 -151 -7
-376 -132 -542 -299 -81 -82 -178 -218 -178 -249 0 -10 0 -20 0 -23 0 -3 -11
-27 -25 -55 -117 -232 -137 -565 -49 -830 67 -200 221 -417 379 -535 56 -42
65 -52 57 -60 -4 -5 -1 -5 6 -1 8 5 29 -3 52 -18 22 -14 44 -26 49 -26 6 0 14
-7 19 -16 5 -9 13 -15 18 -15 17 1 44 -10 44 -19 0 -5 7 -7 15 -4 11 5 13 2 9
-10 -3 -9 -10 -13 -15 -10 -5 3 -6 -2 -3 -10 5 -13 9 -12 26 7 15 17 18 18 14
5 -5 -18 27 -47 56 -52 7 -1 20 -6 28 -11 22 -14 39 -15 47 -3 4 7 1 8 -7 3
-9 -5 -11 -4 -6 3 4 7 2 12 -3 12 -6 0 -11 -5 -11 -11 0 -6 -7 -3 -16 5 -8 9
-20 13 -26 10 -7 -4 -8 -2 -4 4 5 8 2 10 -8 6 -9 -3 -16 -1 -16 6 0 6 -5 8
-12 4 -7 -5 -8 -3 -3 6 6 9 4 11 -5 5 -8 -5 -11 -4 -7 3 6 9 27 9 47 2 3 -1 8
-2 13 -1 4 0 6 -5 5 -11 -2 -9 10 -13 32 -14 21 0 34 -5 33 -12 -2 -6 6 -16
17 -22 11 -6 18 -15 15 -20 -7 -12 12 -23 27 -14 7 5 5 11 -7 21 -16 11 -17
15 -5 26 9 8 11 8 6 0 -11 -21 16 -27 32 -7 11 15 13 15 9 2 -8 -22 3 -30 20
-16 8 6 13 7 12 2 -4 -23 3 -31 26 -31 14 0 25 5 25 11 0 6 4 4 10 -4 6 -9 5
-17 -3 -22 -9 -6 -9 -8 0 -8 6 0 18 6 26 14 11 11 17 12 26 3 6 -6 11 -7 11
-1 0 5 5 2 10 -6 9 -13 10 -13 10 0 0 13 1 13 11 0 9 -13 10 -13 6 0 -2 8 -12
15 -23 14 -11 -1 -26 6 -34 14 -13 14 -12 15 5 8 11 -4 28 -9 38 -11 9 -2 22
-7 27 -10 6 -3 10 -2 10 4 0 5 -6 12 -12 14 -8 4 -9 6 -2 6 7 1 19 -10 28 -24
9 -14 22 -25 29 -25 8 0 8 3 -2 9 -8 5 -9 11 -3 15 6 4 15 -2 21 -11 7 -12 10
-13 11 -4 0 8 6 11 15 7 12 -4 13 -2 6 13 -9 16 -7 18 14 15 14 -1 25 2 25 7
0 5 11 7 25 5 13 -3 27 0 30 5 4 5 12 9 18 9 8 0 8 -3 -1 -9 -11 -6 -10 -10 4
-15 9 -4 22 -1 28 5 8 9 8 10 0 6 -6 -3 -11 0 -11 7 0 8 8 11 19 8 10 -2 15
-9 11 -16 -3 -6 0 -5 8 2 12 11 12 14 -1 22 -8 5 -10 10 -4 10 6 0 17 -6 23
-14 9 -11 9 -15 -1 -19 -7 -2 -9 -8 -5 -13 13 -14 27 18 16 39 -10 18 -10 18
18 0 24 -15 26 -15 15 -1 -9 11 -10 18 -2 23 5 3 10 3 10 -1 0 -4 8 0 18 9 10
10 22 14 25 10 4 -3 7 -1 7 5 0 6 7 9 17 5 12 -5 14 -3 8 8 -7 12 -6 12 7 1
13 -10 18 -10 24 -1 4 8 3 9 -4 5 -7 -4 -12 -3 -12 2 0 10 29 26 43 24 4 -1 6
1 5 5 -2 5 0 9 5 10 4 2 13 7 20 13 6 5 41 29 77 52 36 24 74 50 84 58 226
177 395 488 421 775 4 39 12 79 17 89 24 44 -13 280 -65 418 -114 301 -356
551 -647 667 -84 33 -245 72 -284 68 -14 -1 -87 -5 -163 -8z m-79 -2277 c3 -5
-1 -9 -9 -9 -8 0 -15 4 -15 9 0 4 4 8 9 8 6 0 12 -4 15 -8z m43 -14 c-3 -8 -6
-5 -6 6 -1 11 2 17 5 13 3 -3 4 -12 1 -19z m166 13 c4 -1 7 -6 7 -12 0 -8 -4
-8 -13 0 -9 7 -17 7 -24 0 -6 -6 -10 -5 -10 5 0 7 7 12 16 11 9 -2 19 -4 24
-4z"/>
<path d="M1790 280 c0 -4 7 -7 15 -6 23 3 26 12 5 13 -11 1 -20 -2 -20 -7z"/>
<path d="M786 262 c-3 -5 1 -9 9 -9 8 0 12 4 9 9 -3 4 -7 8 -9 8 -2 0 -6 -4
-9 -8z"/>
<path d="M1856 258 c3 -4 11 -5 19 -1 21 7 19 12 -4 10 -11 0 -18 -5 -15 -9z"/>
<path d="M1761 253 c-1 -17 16 -25 25 -12 4 7 3 9 -4 5 -5 -3 -13 0 -15 6 -4
9 -6 10 -6 1z"/>
<path d="M1669 234 c-11 -13 -11 -18 -1 -21 6 -3 9 -10 5 -16 -3 -7 -3 -9 2
-5 4 4 13 3 20 -2 8 -7 12 -5 12 5 0 8 -3 13 -6 11 -9 -6 -31 21 -24 28 3 3
12 1 19 -5 10 -8 19 -7 35 5 22 15 22 15 1 13 -11 0 -18 -5 -16 -9 7 -12 -10
-10 -22 2 -8 8 -15 6 -25 -6z"/>
<path d="M855 220 c-7 -12 19 -24 37 -17 7 3 3 6 -10 6 -13 1 -20 5 -17 11 3
6 4 10 1 10 -3 0 -8 -5 -11 -10z"/>
<path d="M1736 222 c-3 -5 1 -9 9 -9 8 0 12 4 9 9 -3 4 -7 8 -9 8 -2 0 -6 -4
-9 -8z"/>
<path d="M1815 220 c3 -5 8 -10 11 -10 2 0 4 5 4 10 0 6 -5 10 -11 10 -5 0 -7
-4 -4 -10z"/>
<path d="M753 195 c0 -8 4 -12 9 -9 5 3 6 10 3 15 -9 13 -12 11 -12 -6z"/>
<path d="M906 183 c-6 -14 -5 -15 5 -6 7 7 10 15 7 18 -3 3 -9 -2 -12 -12z"/>
<path d="M930 179 c0 -5 5 -7 10 -4 6 3 10 8 10 11 0 2 -4 4 -10 4 -5 0 -10
-5 -10 -11z"/>
<path d="M1010 181 c0 -5 5 -13 10 -16 6 -3 10 -2 10 4 0 5 -4 13 -10 16 -5 3
-10 2 -10 -4z"/>
<path d="M1638 183 c7 -3 16 -2 19 1 4 3 -2 6 -13 5 -11 0 -14 -3 -6 -6z"/>
<path d="M1097 159 c4 -13 8 -18 11 -10 2 7 -1 18 -6 23 -8 8 -9 4 -5 -13z"/>
<path d="M1453 163 c-5 -12 -7 -12 -14 -1 -6 9 -8 6 -6 -10 2 -27 14 -29 22
-2 4 11 11 18 16 14 5 -3 7 -9 4 -14 -3 -5 -1 -12 5 -15 6 -4 9 -1 8 6 -4 16
24 19 34 4 5 -6 8 -6 8 2 0 27 -68 41 -77 16z"/>
<path d="M1836 167 c3 -10 9 -15 12 -12 3 3 0 11 -7 18 -10 9 -11 8 -5 -6z"/>
<path d="M973 150 c1 -21 10 -18 13 5 1 8 -2 15 -6 15 -5 0 -8 -9 -7 -20z"/>
<path d="M1560 162 c0 -5 7 -9 15 -9 8 0 12 4 9 9 -7 10 -24 10 -24 0z"/>
<path d="M1313 120 c1 -21 10 -18 13 5 1 8 -2 15 -6 15 -5 0 -8 -9 -7 -20z"/>
<path d="M1400 120 c-9 -6 -10 -10 -3 -10 6 0 15 5 18 10 8 12 4 12 -15 0z"/>
</g>
</svg>
